<svg width="80" height="80" viewBox="0 0 80 80" fill="none" xmlns="http://www.w3.org/2000/svg">
<rect width="80" height="80" fill="white"/>
<path d="M17.5 27C17.2239 27 17 27.2239 17 27.5C17 27.7761 17.2239 28 17.5 28H34C34.2761 28 34.5 27.7761 34.5 27.5C34.5 27.2239 34.2761 27 34 27H17.5ZM17.5 31C17.2239 31 17 31.2239 17 31.5C17 31.7761 17.2239 32 17.5 32H34C34.2761 32 34.5 31.7761 34.5 31.5C34.5 31.2239 34.2761 31 34 31H17.5ZM17.5 35C17.2239 35 17 35.2239 17 35.5C17 35.7761 17.2239 36 17.5 36H34C34.2761 36 34.5 35.7761 34.5 35.5C34.5 35.2239 34.2761 35 34 35H17.5ZM17.5 39C17.2239 39 17 39.2239 17 39.5C17 39.7761 17.2239 40 17.5 40H34C34.2761 40 34.5 39.7761 34.5 39.5C34.5 39.2239 34.2761 39 34 39H17.5ZM17.5 43C17.2239 43 17 43.2239 17 43.5C17 43.7761 17.2239 44 17.5 44H34C34.2761 44 34.5 43.7761 34.5 43.5C34.5 43.2239 34.2761 43 34 43H17.5ZM17.5 47C17.2239 47 17 47.2239 17 47.5C17 47.7761 17.2239 48 17.5 48H34C34.2761 48 34.5 47.7761 34.5 47.5C34.5 47.2239 34.2761 47 34 47H17.5ZM17.5 51C17.2239 51 17 51.2239 17 51.5C17 51.7761 17.2239 52 17.5 52H34C34.2761 52 34.5 51.7761 34.5 51.5C34.5 51.2239 34.2761 51 34 51H17.5ZM45.5 27C45.2239 27 45 27.2239 45 27.5C45 27.7761 45.2239 28 45.5 28H62C62.2761 28 62.5 27.7761 62.5 27.5C62.5 27.2239 62.2761 27 62 27H45.5ZM45.5 31C45.2239 31 45 31.2239 45 31.5C45 31.7761 45.2239 32 45.5 32H62C62.2761 32 62.5 31.7761 62.5 31.5C62.5 31.2239 62.2761 31 62 31H45.5ZM45.5 35C45.2239 35 45 35.2239 45 35.5C45 35.7761 45.2239 36 45.5 36H62C62.2761 36 62.5 35.7761 62.5 35.5C62.5 35.2239 62.2761 35 62 35H45.5ZM45.5 39C45.2239 39 45 39.2239 45 39.5C45 39.7761 45.2239 40 45.5 40H62C62.2761 40 62.5 39.7761 62.5 39.5C62.5 39.2239 62.2761 39 62 39H45.5ZM45.5 43C45.2239 43 45 43.2239 45 43.5C45 43.7761 45.2239 44 45.5 44H62C62.2761 44 62.5 43.7761 62.5 43.5C62.5 43.2239 62.2761 43 62 43H45.5ZM45.5 47C45.2239 47 45 47.2239 45 47.5C45 47.7761 45.2239 48 45.5 48H62C62.2761 48 62.5 47.7761 62.5 47.5C62.5 47.2239 62.2761 47 62 47H45.5ZM45.5 51C45.2239 51 45 51.2239 45 51.5C45 51.7761 45.2239 52 45.5 52H62C62.2761 52 62.5 51.7761 62.5 51.5C62.5 51.2239 62.2761 51 62 51H45.5ZM39.5 59.5H14C12.067 59.5 10.5 57.933 10.5 56V24C10.5 22.067 12.067 20.5 14 20.5H39.5V59.5ZM40.5 20.5H66C67.933 20.5 69.5 22.067 69.5 24V56C69.5 57.933 67.933 59.5 66 59.5H40.5V20.5Z" stroke="#17181C" stroke-linecap="round"/>
</svg>
