<svg width="80" height="80" viewBox="0 0 80 80" fill="none" xmlns="http://www.w3.org/2000/svg">
<rect width="80" height="80" fill="white"/>
<path d="M27 21.75C26.7239 21.75 26.5 21.9739 26.5 22.25C26.5 22.5261 26.7239 22.75 27 22.75H53C53.2761 22.75 53.5 22.5261 53.5 22.25C53.5 21.9739 53.2761 21.75 53 21.75H27ZM27 27.75C26.7239 27.75 26.5 27.9739 26.5 28.25C26.5 28.5261 26.7239 28.75 27 28.75H53C53.2761 28.75 53.5 28.5261 53.5 28.25C53.5 27.9739 53.2761 27.75 53 27.75H27ZM27 33.75C26.7239 33.75 26.5 33.9739 26.5 34.25C26.5 34.5261 26.7239 34.75 27 34.75H53C53.2761 34.75 53.5 34.5261 53.5 34.25C53.5 33.9739 53.2761 33.75 53 33.75H27ZM27 39.75C26.7239 39.75 26.5 39.9739 26.5 40.25C26.5 40.5261 26.7239 40.75 27 40.75H53C53.2761 40.75 53.5 40.5261 53.5 40.25C53.5 39.9739 53.2761 39.75 53 39.75H27ZM27 45.75C26.7239 45.75 26.5 45.9739 26.5 46.25C26.5 46.5261 26.7239 46.75 27 46.75H53C53.2761 46.75 53.5 46.5261 53.5 46.25C53.5 45.9739 53.2761 45.75 53 45.75H27ZM27 51.75C26.7239 51.75 26.5 51.9739 26.5 52.25C26.5 52.5261 26.7239 52.75 27 52.75H53C53.2761 52.75 53.5 52.5261 53.5 52.25C53.5 51.9739 53.2761 51.75 53 51.75H27ZM27 57.75C26.7239 57.75 26.5 57.9739 26.5 58.25C26.5 58.5261 26.7239 58.75 27 58.75H53C53.2761 58.75 53.5 58.5261 53.5 58.25C53.5 57.9739 53.2761 57.75 53 57.75H27ZM59.5 14V66C59.5 67.933 57.933 69.5 56 69.5H24C22.067 69.5 20.5 67.933 20.5 66V14C20.5 12.067 22.067 10.5 24 10.5H56C57.933 10.5 59.5 12.067 59.5 14Z" stroke="#17181C" stroke-linecap="round"/>
</svg>
